<svg width="47" height="47" viewBox="0 0 47 47" fill="none" xmlns="http://www.w3.org/2000/svg">
<path d="M23.5002 21.208C22.1404 21.208 20.8112 21.6112 19.6806 22.3667C18.55 23.1221 17.6688 24.1958 17.1485 25.4521C16.6281 26.7083 16.492 28.0906 16.7573 29.4243C17.0225 30.7579 17.6773 31.9829 18.6388 32.9444C19.6003 33.9059 20.8253 34.5606 22.1589 34.8259C23.4925 35.0912 24.8749 34.955 26.1311 34.4347C27.3874 33.9143 28.4611 33.0331 29.2165 31.9026C29.9719 30.772 30.3752 29.4428 30.3752 28.083C30.3752 26.2596 29.6508 24.511 28.3615 23.2216C27.0722 21.9323 25.3235 21.208 23.5002 21.208ZM23.5002 30.3747C23.0469 30.3747 22.6038 30.2403 22.227 29.9885C21.8501 29.7366 21.5564 29.3787 21.3829 28.96C21.2095 28.5412 21.1641 28.0805 21.2525 27.6359C21.341 27.1914 21.5592 26.783 21.8797 26.4626C22.2002 26.1421 22.6085 25.9238 23.0531 25.8354C23.4976 25.7469 23.9584 25.7923 24.3771 25.9658C24.7959 26.1392 25.1538 26.433 25.4056 26.8098C25.6574 27.1867 25.7918 27.6298 25.7918 28.083C25.7918 28.6908 25.5504 29.2737 25.1206 29.7035C24.6908 30.1332 24.1079 30.3747 23.5002 30.3747ZM39.5418 9.74967H32.6668V7.45801C32.6668 5.63464 31.9425 3.88596 30.6532 2.59665C29.3639 1.30734 27.6152 0.583008 25.7918 0.583008H21.2085C19.3851 0.583008 17.6364 1.30734 16.3471 2.59665C15.0578 3.88596 14.3335 5.63464 14.3335 7.45801V9.74967H7.4585C5.63513 9.74967 3.88645 10.474 2.59714 11.7633C1.30782 13.0526 0.583496 14.8013 0.583496 16.6247V39.5413C0.583496 41.3647 1.30782 43.1134 2.59714 44.4027C3.88645 45.692 5.63513 46.4163 7.4585 46.4163H39.5418C41.3652 46.4163 43.1139 45.692 44.4032 44.4027C45.6925 43.1134 46.4168 41.3647 46.4168 39.5413V16.6247C46.4168 14.8013 45.6925 13.0526 44.4032 11.7633C43.1139 10.474 41.3652 9.74967 39.5418 9.74967ZM18.9168 7.45801C18.9168 6.85022 19.1583 6.26733 19.588 5.83755C20.0178 5.40778 20.6007 5.16634 21.2085 5.16634H25.7918C26.3996 5.16634 26.9825 5.40778 27.4123 5.83755C27.8421 6.26733 28.0835 6.85022 28.0835 7.45801V9.74967H18.9168V7.45801ZM5.16683 16.6247C5.16683 16.0169 5.40827 15.434 5.83804 15.0042C6.26781 14.5745 6.85071 14.333 7.4585 14.333H9.75016C9.75016 15.5486 9.26728 16.7144 8.40774 17.5739C7.54819 18.4335 6.3824 18.9163 5.16683 18.9163V16.6247ZM7.4585 41.833C6.85071 41.833 6.26781 41.5916 5.83804 41.1618C5.40827 40.732 5.16683 40.1491 5.16683 39.5413V37.2497C6.3824 37.2497 7.54819 37.7326 8.40774 38.5921C9.26728 39.4516 9.75016 40.6174 9.75016 41.833H7.4585ZM41.8335 39.5413C41.8335 40.1491 41.5921 40.732 41.1623 41.1618C40.7325 41.5916 40.1496 41.833 39.5418 41.833H37.2502C37.2502 40.6174 37.733 39.4516 38.5926 38.5921C39.4521 37.7326 40.6179 37.2497 41.8335 37.2497V39.5413ZM41.8335 32.6663C39.4023 32.6663 37.0708 33.6321 35.3517 35.3512C33.6326 37.0703 32.6668 39.4019 32.6668 41.833H14.3335C14.3335 39.4019 13.3677 37.0703 11.6486 35.3512C9.92956 33.6321 7.59798 32.6663 5.16683 32.6663V23.4997C7.59798 23.4997 9.92956 22.5339 11.6486 20.8148C13.3677 19.0957 14.3335 16.7642 14.3335 14.333H32.6668C32.6668 16.7642 33.6326 19.0957 35.3517 20.8148C37.0708 22.5339 39.4023 23.4997 41.8335 23.4997V32.6663ZM41.8335 18.9163C40.6179 18.9163 39.4521 18.4335 38.5926 17.5739C37.733 16.7144 37.2502 15.5486 37.2502 14.333H39.5418C40.1496 14.333 40.7325 14.5745 41.1623 15.0042C41.5921 15.434 41.8335 16.0169 41.8335 16.6247V18.9163Z" fill="#EE1E7B"/>
</svg>
