<svg width="56" height="55" viewBox="0 0 56 55" fill="none" xmlns="http://www.w3.org/2000/svg">
<path fill-rule="evenodd" clip-rule="evenodd" d="M32.4275 9.30627C35.9862 5.23348 55.0347 0.125 55.0347 0.125C55.0347 0.125 51.7968 20.4966 48.9483 23.7542C46.8267 26.1814 40.0666 24.6652 36.7543 23.7329C39.2302 19.9354 42.1 16.2261 44.6231 13.2817C44.8805 12.9749 45.0065 12.579 44.9737 12.1798C44.941 11.7807 44.7521 11.4106 44.4481 11.1498C44.1441 10.8891 43.7496 10.7588 43.3501 10.7872C42.9506 10.8156 42.5785 11.0005 42.3144 11.3016C39.7701 14.2703 36.8212 18.0693 34.2388 22.0189C32.7879 19.3179 29.6109 12.5274 32.4275 9.30627ZM7.72917 36.625H0.125V54.875H7.72917V51.7679C9.28042 51.7041 11.5708 51.6219 12.3631 51.6539C15.0809 51.7649 17.1081 52.4128 19.1613 53.0682C21.0745 53.6781 23.0075 54.2956 25.5366 54.4887C26.1723 54.5374 26.7913 54.5997 27.392 54.659C29.5562 54.878 31.477 55.0727 33.0647 54.4887C35.0905 53.7435 46.6701 48.0754 48.1179 46.5834C49.5658 45.093 48.8419 41.0658 44.3539 41.811C42.1395 42.1791 39.5739 43.2376 37.2455 44.1972C34.8563 45.1812 32.718 46.0633 31.4709 45.9872C29.0102 45.8382 22.498 44.6459 22.498 44.6459L29.9759 44.7371C29.9759 44.7371 31.0329 44.7919 32.4853 43.7501C33.9377 42.7083 35.235 39.7229 33.0632 39.7229C30.893 39.7229 28.5767 38.9777 28.5767 38.9777L19.3118 36.8896C19.3118 36.8896 16.1272 36.2935 14.8254 36.8896C13.7517 37.3809 9.27737 38.9838 7.72917 39.5359V36.625ZM4.50196 5.70646C4.50196 5.70646 20.2198 9.92221 23.158 13.2817C25.4286 15.8778 22.9816 21.2844 21.7497 23.6112C20.1349 21.076 18.3918 18.6248 16.5272 16.2671C16.4035 16.1103 16.2501 15.9795 16.0758 15.882C15.9015 15.7845 15.7097 15.7223 15.5113 15.6989C15.313 15.6755 15.112 15.6914 14.9198 15.7458C14.7276 15.8001 14.548 15.8917 14.3912 16.0154C14.2344 16.1392 14.1035 16.2925 14.006 16.4669C13.9085 16.6412 13.8463 16.833 13.8229 17.0313C13.7996 17.2297 13.8155 17.4307 13.8698 17.6229C13.9241 17.815 14.0158 17.9947 14.1395 18.1514C15.9519 20.443 17.6453 22.8263 19.213 25.2917C16.3721 26.0613 11.1982 27.1213 9.52527 25.2066C7.17406 22.5177 4.50196 5.70494 4.50196 5.70494V5.70646Z" fill="#10B0D8"/>
</svg>
