<svg width="73" height="73" viewBox="0 0 73 73" fill="none" xmlns="http://www.w3.org/2000/svg">
<path fill-rule="evenodd" clip-rule="evenodd" d="M29.1632 32.9214C28.9927 33.0258 28.8445 33.1628 28.727 33.3245C28.6095 33.4861 28.5251 33.6694 28.4785 33.8638C28.4318 34.0581 28.424 34.2597 28.4554 34.4571C28.4867 34.6545 28.5567 34.8438 28.6613 35.0141C30.0589 37.2923 31.2467 39.5538 32.0375 41.6084C32.1823 41.985 32.4708 42.2886 32.8394 42.4524C33.208 42.6163 33.6267 42.627 34.0032 42.4822C34.3797 42.3374 34.6833 42.0489 34.8472 41.6803C35.011 41.3116 35.0217 40.893 34.8769 40.5165C33.9979 38.2292 32.7082 35.7943 31.2543 33.4233C31.0435 33.0795 30.7048 32.8335 30.3126 32.7394C29.9205 32.6452 29.507 32.7107 29.1632 32.9214ZM45.0011 31.4706C45.3265 31.7086 45.5441 32.0662 45.6059 32.4646C45.6678 32.863 45.569 33.2696 45.3311 33.5952C43.5715 36.0027 42.0218 39.2223 40.9314 41.6799C40.8503 41.8625 40.734 42.0273 40.5893 42.1649C40.4445 42.3025 40.274 42.4102 40.0876 42.482C39.9012 42.5537 39.7025 42.588 39.5028 42.583C39.3031 42.5779 39.1064 42.5336 38.9239 42.4525C38.7413 42.3714 38.5765 42.2552 38.4389 42.1104C38.3013 41.9656 38.1935 41.7952 38.1218 41.6088C38.0501 41.4224 38.0157 41.2236 38.0208 41.024C38.0259 40.8243 38.0702 40.6276 38.1513 40.445C39.2524 37.966 40.9101 34.4894 42.8765 31.8006C43.1146 31.4752 43.4721 31.2576 43.8705 31.1958C44.2689 31.1339 44.6756 31.2327 45.0011 31.4706Z" fill="black"/>
<path fill-rule="evenodd" clip-rule="evenodd" d="M41.4275 18.3063C44.9862 14.2335 64.0347 9.125 64.0347 9.125C64.0347 9.125 60.7968 29.4966 57.9483 32.7542C55.8267 35.1814 49.0666 33.6652 45.7543 32.7329C48.2302 28.9354 51.1 25.2261 53.6231 22.2817C53.8805 21.9749 54.0065 21.579 53.9737 21.1798C53.941 20.7807 53.7521 20.4106 53.4481 20.1498C53.1441 19.8891 52.7496 19.7588 52.3501 19.7872C51.9506 19.8156 51.5785 20.0005 51.3144 20.3016C48.7701 23.2703 45.8212 27.0693 43.2388 31.0189C41.7879 28.3179 38.6109 21.5274 41.4275 18.3063ZM16.7292 45.625H9.125V63.875H16.7292V60.7679C18.2804 60.7041 20.5708 60.6219 21.3631 60.6539C24.0809 60.7649 26.1081 61.4128 28.1613 62.0682C30.0745 62.6781 32.0075 63.2956 34.5366 63.4887C35.1723 63.5374 35.7913 63.5997 36.392 63.659C38.5562 63.878 40.477 64.0727 42.0647 63.4887C44.0905 62.7435 55.6701 57.0754 57.1179 55.5834C58.5658 54.093 57.8419 50.0658 53.3539 50.811C51.1395 51.1791 48.5739 52.2376 46.2455 53.1972C43.8563 54.1812 41.718 55.0633 40.4709 54.9872C38.0102 54.8382 31.498 53.6459 31.498 53.6459L38.9759 53.7371C38.9759 53.7371 40.0329 53.7919 41.4853 52.7501C42.9377 51.7083 44.235 48.7229 42.0632 48.7229C39.893 48.7229 37.5767 47.9777 37.5767 47.9777L28.3118 45.8896C28.3118 45.8896 25.1272 45.2935 23.8254 45.8896C22.7517 46.3809 18.2774 47.9838 16.7292 48.5359V45.625ZM13.502 14.7065C13.502 14.7065 29.2198 18.9222 32.158 22.2817C34.4286 24.8778 31.9816 30.2844 30.7497 32.6112C29.1349 30.076 27.3918 27.6248 25.5272 25.2671C25.4035 25.1103 25.2501 24.9795 25.0758 24.882C24.9015 24.7845 24.7097 24.7223 24.5113 24.6989C24.313 24.6755 24.112 24.6914 23.9198 24.7458C23.7276 24.8001 23.548 24.8917 23.3912 25.0154C23.2344 25.1392 23.1035 25.2925 23.006 25.4669C22.9085 25.6412 22.8463 25.833 22.8229 26.0313C22.7996 26.2297 22.8155 26.4307 22.8698 26.6229C22.9241 26.815 23.0158 26.9947 23.1395 27.1514C24.9519 29.443 26.6453 31.8263 28.213 34.2917C25.3721 35.0613 20.1982 36.1213 18.5253 34.2066C16.1741 31.5177 13.502 14.7049 13.502 14.7049V14.7065Z" fill="black"/>
</svg>
