<svg width="58" height="58" viewBox="0 0 58 58" fill="none" xmlns="http://www.w3.org/2000/svg">
<path d="M45.917 33.8333V18.125L33.8337 9.66667L21.7503 18.125V21.75H16.917V15.7083L33.8337 3.625L50.7503 15.7083V33.8333H45.917ZM35.042 19.3333H37.4587V16.9167H35.042V19.3333ZM30.2087 19.3333H32.6253V16.9167H30.2087V19.3333ZM35.042 24.1667H37.4587V21.75H35.042V24.1667ZM30.2087 24.1667H32.6253V21.75H30.2087V24.1667ZM33.8337 54.375L16.917 49.6625V53.1667H2.41699V26.5833H21.6295L36.6128 32.1417C37.942 32.625 39.019 33.4708 39.8439 34.6792C40.6688 35.8875 41.0821 37.2167 41.0837 38.6667H45.917C47.9309 38.6667 49.6427 39.3313 51.0524 40.6604C52.4621 41.9896 53.167 43.7417 53.167 45.9167V48.3333L33.8337 54.375ZM7.25033 48.3333H12.0837V31.4167H7.25033V48.3333ZM33.7128 49.3L48.092 44.8292C47.9712 44.3861 47.6997 44.0534 47.2776 43.8311C46.8555 43.6087 46.4019 43.4984 45.917 43.5H34.317C33.0684 43.5 31.9406 43.4194 30.9337 43.2583C29.9267 43.0972 28.8392 42.8153 27.6712 42.4125L23.5024 40.9625L24.892 36.3708L29.7253 37.9417C30.4503 38.1833 31.2962 38.3646 32.2628 38.4854C33.2295 38.6063 34.5587 38.6667 36.2503 38.6667C36.2503 38.2236 36.1198 37.8007 35.8588 37.3979C35.5978 36.9951 35.2853 36.7333 34.9212 36.6125L20.7837 31.4167H16.917V44.7083L33.7128 49.3Z" fill="#0A0A0A"/>
</svg>
